<svg
  width="336"
  height="348"
  viewBox="0 0 336 348"
  fill="none"
  xmlns="http://www.w3.org/2000/svg"
>
  <path
    d="M189.05 77.9113C190.135 80.7263 190.677 83.4207 190.677 85.9945L190.617 87.1406C190.416 88.7894 189.914 89.7948 189.11 90.1567C188.387 90.4382 187.583 90.2371 186.7 89.5535C184.691 87.9047 183.144 84.6071 182.059 79.6606C181.015 74.9555 180.934 71.9997 181.818 70.7932L183.084 70.7329L184.47 71.3361C186.318 72.5024 187.845 74.6941 189.05 77.9113Z"
    fill="#1B2D42"
  />
  <path
    d="M187.724 88.347C186.439 87.2612 185.434 85.2505 184.711 82.3148C184.108 79.9421 183.807 77.5694 183.807 75.1967L184.048 72.9648C185.535 74.1713 186.78 76.1418 187.784 78.8764C188.668 81.41 189.11 83.7826 189.11 85.9945L189.05 86.9596C188.97 88.0052 188.789 88.5883 188.508 88.709L187.724 88.347Z"
    fill="#1B2D42"
  />
  <path
    d="M187.182 81.5909L187.363 83.8229C187.282 84.5065 187.122 84.8885 186.88 84.969C186.599 85.0494 186.318 84.8081 186.037 84.2451C185.756 83.6821 185.535 82.9783 185.374 82.1338L185.193 79.9019C185.273 79.2182 185.434 78.8362 185.675 78.7558C185.956 78.7156 186.238 78.9568 186.519 79.4796L187.182 81.5909Z"
    fill="#1B2D42"
  />
  <path
    d="M329.523 242.833L331.331 242.109C331.974 241.908 332.456 242.089 332.777 242.652H333.44C335.449 246.392 335.409 252.102 333.319 259.783C331.471 266.62 329.262 271.466 326.691 274.321C326.048 275.045 325.425 275.286 324.822 275.045C324.139 274.804 323.677 273.738 323.436 271.848C323.316 270.923 323.175 268.389 323.015 264.247L322.653 257.491C322.452 254.917 323.115 251.962 324.642 248.624C326.208 245.246 327.836 243.315 329.523 242.833Z"
    fill="#1B2D42"
  />
  <path
    d="M329.945 244.341C330.427 244.22 330.808 244.461 331.09 245.065C331.933 246.593 332.355 248.604 332.355 251.097C332.355 254.837 331.491 259.18 329.764 264.127C328.277 268.43 326.911 271.265 325.666 272.632L325.485 272.813C325.083 272.17 324.782 269.294 324.581 264.187L324.22 256.586C324.22 254.294 324.883 251.76 326.208 248.986C327.534 246.211 328.78 244.663 329.945 244.341Z"
    fill="#1B2D42"
  />
  <path
    d="M331.09 245.065L331.994 247.478L329.945 249.83C328.016 252.846 326.691 260.326 325.967 272.27L325.485 272.813C325.083 272.17 324.782 269.294 324.581 264.187L324.22 256.586C324.22 254.294 324.883 251.76 326.208 248.986C327.534 246.211 328.78 244.663 329.945 244.341C330.427 244.22 330.808 244.461 331.09 245.065Z"
    fill="#1B2D42"
  />
  <path
    d="M249.373 159.286C250.98 162.503 253.672 165.318 257.449 167.731C260.261 169.581 264.7 171.733 270.767 174.186L282.94 179.012C286.114 180.419 288.665 182.068 290.593 183.958C296.338 189.669 303.811 197.611 313.011 207.785C322.412 218.161 328.238 224.957 330.487 228.174C332.777 231.432 334.244 234.83 334.887 238.369C335.489 241.868 335.188 245.004 333.983 247.779C332.456 251.318 328.479 253.49 322.051 254.294L299.512 254.958C294.771 253.832 291.316 250.514 289.147 245.004C284.888 234.026 280.549 223.771 276.13 214.24C269.421 199.803 264.519 191.639 261.426 189.749C257.208 187.215 252.266 184.883 246.601 182.752L229.246 176.961C226.072 175.915 224.103 173.04 223.34 168.335C222.737 164.514 222.958 160.372 224.003 155.908C224.686 152.972 225.77 150.741 227.257 149.212C228.703 147.765 230.431 147.081 232.439 147.161C239.832 147.443 245.476 151.484 249.373 159.286Z"
    fill="#1B2D42"
  />
  <path
    d="M269.983 176.176C274.764 178.147 278.199 179.615 280.288 180.58C283.783 182.269 286.194 183.797 287.52 185.165C293.827 191.438 301.36 199.28 310.118 208.69C319.801 219.066 325.706 225.741 327.836 228.717C329.925 231.653 331.271 234.649 331.873 237.705C332.436 240.721 332.195 243.436 331.15 245.849C329.543 249.468 326.43 251.6 321.809 252.243C311.484 253.53 304.213 253.389 299.994 251.821C296.258 250.413 293.385 247.136 291.377 241.988C288.082 233.744 284.446 225.359 280.469 216.834C272.474 199.823 266.468 190.191 262.45 187.939C254.496 183.355 244.15 179.012 231.415 174.91C228.924 174.065 227.156 171.672 226.112 167.731C225.188 164.032 225.168 160.231 226.051 156.33C226.453 154.601 227.016 153.133 227.739 151.927C228.984 149.916 230.451 149.031 232.138 149.273C235.593 149.755 238.526 151.102 240.936 153.314C242.423 154.682 244.592 157.436 247.445 161.578L249.735 164.836C251.061 166.726 253.692 168.676 257.629 170.687C259.919 171.894 264.037 173.723 269.983 176.176Z"
    fill="#1B2D42"
  />
  <path
    d="M314.518 250.856C322.593 249.609 328.398 247.156 331.934 243.496L331.15 245.849C329.543 249.468 326.43 251.6 321.809 252.243L304.333 252.846C300.396 252.323 297.383 250.956 295.294 248.744C303.409 250.876 309.817 251.579 314.518 250.856Z"
    fill="#1B2D42"
  />
  <path
    d="M232.138 149.273C234.749 149.635 236.999 150.459 238.887 151.746C240.495 152.791 242.142 154.38 243.829 156.511C244.07 164.876 245.978 173.221 249.554 181.545C244.412 179.374 238.365 177.162 231.415 174.91C228.924 174.065 227.156 171.672 226.112 167.731C225.188 164.032 225.168 160.231 226.051 156.33C226.453 154.601 227.016 153.133 227.739 151.927C228.984 149.916 230.451 149.031 232.138 149.273Z"
    fill="#1B2D42"
  />
  <path
    d="M324.521 238.851C325.887 241.224 326.53 245.205 326.45 250.795C326.369 257.27 325.224 263.423 323.015 269.254L321.086 272.994C320.162 274.401 319.439 275.085 318.917 275.045C318.394 275.005 317.691 273.979 316.807 271.968L313.312 261.834C311.504 256.164 310.56 252.565 310.48 251.037C310.44 249.428 311.846 247.035 314.698 243.858C317.511 240.721 319.861 238.872 321.749 238.309C323.155 237.906 324.079 238.087 324.521 238.851Z"
    fill="#1B2D42"
  />
  <path
    d="M322.894 240.42C324.019 242.39 324.401 246.975 324.039 254.173C323.718 261.694 322.693 266.901 320.966 269.797L319.64 271.486L319.158 271.727L318.495 270.883L315.241 260.809C313.553 255.219 312.69 251.68 312.649 250.192C312.569 249.106 313.674 247.317 315.964 244.823C318.294 242.29 320.283 240.782 321.93 240.299L322.894 240.42Z"
    fill="#1B2D42"
  />
  <path
    d="M312.649 250.192C312.609 249.428 313.352 248.061 314.879 246.09C315.241 249.307 316.004 253.61 317.169 258.999C318.254 264.106 319.238 268.108 320.122 271.003L319.399 271.667L319.158 271.727L318.495 270.883L315.241 260.809C313.553 255.219 312.689 251.68 312.649 250.192Z"
    fill="#1B2D42"
  />
  <path
    d="M301.561 234.508C303.449 234.187 304.715 234.629 305.357 235.835C306.603 238.087 306.944 242.31 306.382 248.503C305.659 256.144 303.449 262.86 299.753 268.651C299.432 269.174 298.97 269.274 298.367 268.952C297.122 268.389 295.535 264.408 293.606 257.008C291.798 250.092 290.975 245.969 291.135 244.642C291.296 243.436 292.582 241.586 294.992 239.093C297.563 236.398 299.753 234.87 301.561 234.508Z"
    fill="#1B2D42"
  />
  <path
    d="M303.731 237.826C304.132 238.55 304.333 240.299 304.333 243.074C304.333 246.935 303.911 250.755 303.068 254.535C302.023 259.281 300.496 262.92 298.488 265.454C297.684 264.287 296.579 260.869 295.173 255.199C293.767 249.689 293.064 246.09 293.064 244.401L293.124 244.039C293.245 243.235 294.229 241.948 296.077 240.179C298.126 238.208 299.914 237.082 301.441 236.8C302.525 236.64 303.289 236.981 303.731 237.826Z"
    fill="#1B2D42"
  />
  <path
    d="M293.124 244.039C293.205 243.396 294.048 242.229 295.655 240.54C296.218 244.763 296.881 248.925 297.644 253.027C298.568 258.135 299.371 261.452 300.054 262.98L298.488 265.454C297.684 264.287 296.579 260.869 295.173 255.199C293.767 249.689 293.064 246.09 293.064 244.401L293.124 244.039Z"
    fill="#1B2D42"
  />
  <path
    d="M231.294 318.417C231.535 317.009 233.042 315.28 235.814 313.229C238.425 311.258 240.173 310.333 241.057 310.454C241.981 310.615 244.673 311.922 249.132 314.375C253.993 317.069 256.645 319 257.087 320.166C257.288 320.608 257.248 320.99 256.966 321.312C256.203 322.237 252.567 322.539 246.059 322.217L233.163 320.769C232.279 320.568 231.696 320.166 231.415 319.563C231.214 319.161 231.174 318.779 231.294 318.417Z"
    fill="#1B2D42"
  />
  <path
    d="M232.801 318.779C232.841 317.894 234.046 316.567 236.417 314.797C238.626 313.108 240.133 312.204 240.937 312.083C241.82 312.284 244.251 313.49 248.228 315.702C252.286 317.954 254.315 319.281 254.315 319.683L245.878 320.226L233.524 319.201C233.042 319.12 232.801 318.98 232.801 318.779Z"
    fill="#1B2D42"
  />
  <path
    d="M233.524 319.201C233.042 319.12 232.801 318.98 232.801 318.779C232.841 317.813 234.147 316.406 236.718 314.556C242.142 316.366 247.987 318.055 254.255 319.623L254.315 319.683L245.878 320.226L233.524 319.201Z"
    fill="#1B2D42"
  />
  <path
    d="M212.794 229.984L216.108 229.562C216.871 229.522 217.333 229.723 217.494 230.165L222.858 245.065C224.826 249.649 227.478 253.852 230.812 257.672C237.642 265.393 241.66 271.466 242.865 275.889C244.914 283.209 243.086 292.277 237.381 303.095C237.18 303.497 237.321 304.04 237.803 304.724L239.852 307.016C242.985 310.153 244.854 312.364 245.456 313.651C246.059 314.978 246.139 316.245 245.697 317.452L243.407 320.83C240.957 323.886 236.276 326.078 229.366 327.405L214.662 327.887L197.848 324.811C186.599 322.519 180.493 320.689 179.529 319.322C178.484 317.834 178.604 315.24 179.89 311.54C180.854 308.765 182.019 306.292 183.385 304.12C184.309 302.673 184.872 301.406 185.073 300.32C185.274 299.114 185.113 297.887 184.591 296.64C183.667 294.63 180.794 292.518 175.973 290.306C173 288.979 167.255 286.828 158.738 283.852L159.22 282.766L160.003 280.715C160.445 276.653 167.777 267.484 181.999 253.208C196.703 238.449 206.968 230.708 212.794 229.984Z"
    fill="#1B2D42"
  />
  <path
    d="M215.084 233.06C217.334 239.455 219.443 244.602 221.411 248.503C223.741 253.128 226.433 257.25 229.487 260.869C235.392 267.826 238.868 273.557 239.912 278.061C241.358 284.335 239.892 292.398 235.513 302.25C235.071 303.256 235.191 304.341 235.874 305.508C236.236 306.151 237.06 307.136 238.345 308.464C240.113 310.233 241.218 311.62 241.66 312.626C242.704 314.878 242.463 316.929 240.937 318.779C238.767 321.473 234.609 323.524 228.462 324.932C222.878 326.218 218.418 326.52 215.084 325.836L194.775 321.614C187.343 319.925 183.325 318.578 182.722 317.572C182.16 316.647 182.722 313.51 184.41 308.162L187.182 299.114C187.182 298.028 186.961 296.922 186.519 295.796C184.229 290.648 176.094 285.662 162.113 280.836C162.233 277.699 169.023 269.314 182.481 255.681C196.462 241.526 206.406 233.704 212.312 232.216C213.758 231.854 214.682 232.136 215.084 233.06Z"
    fill="#1B2D42"
  />
  <path
    d="M212.312 232.216C213.758 231.854 214.682 232.136 215.084 233.06C216.892 238.208 218.579 242.471 220.146 245.849C221.954 249.75 223.902 253.248 225.991 256.345C218.88 260.608 212.774 265.936 207.671 272.33C201.364 280.293 199.174 287.31 201.103 293.383C202.067 296.359 202.127 298.973 201.283 301.225C200.681 302.874 199.395 304.703 197.427 306.714C195.177 309.006 194.132 311.017 194.293 312.746C194.414 314.435 195.699 315.803 198.15 316.848L205.803 319.442L211.408 320.709L216.108 321.674C217.153 321.996 218.398 322.659 219.844 323.665L221.472 326.017L215.084 325.836L201.766 323.062L189.351 320.287L188.206 319.925H188.146C184.932 319 183.124 318.216 182.722 317.572C182.16 316.647 182.722 313.51 184.41 308.162L187.182 299.114C187.182 298.028 186.961 296.922 186.519 295.796C184.229 290.648 176.094 285.662 162.113 280.836C162.233 277.699 169.023 269.314 182.481 255.681C196.462 241.526 206.406 233.704 212.312 232.216Z"
    fill="#1B2D42"
  />
  <path
    d="M230.33 320.468C231.254 318.779 232.942 316.889 235.392 314.797C238.044 312.586 239.872 311.721 240.876 312.203C241.72 312.606 243.909 314.395 247.445 317.572C251.543 321.272 253.853 323.946 254.375 325.595C254.576 326.239 254.476 326.681 254.074 326.922C252.989 327.606 249.554 327.666 243.769 327.103C237.662 326.5 233.524 325.535 231.355 324.208L230.451 323.785C230.009 323.544 229.788 323.263 229.788 322.941C229.788 321.976 229.969 321.151 230.33 320.468Z"
    fill="#1B2D42"
  />
  <path
    d="M232.198 322.7C232.198 322.297 232.479 321.594 233.042 320.588C234.046 319.02 235.372 317.452 237.019 315.883C238.586 314.395 239.651 313.651 240.213 313.651C241.057 314.094 243.186 315.964 246.601 319.261C250.137 322.639 251.844 324.529 251.723 324.932L243.407 325.173C237.823 324.771 234.086 324.007 232.198 322.881V322.7Z"
    fill="#1B2D42"
  />
  <path
    d="M242.744 325.173C237.521 324.73 234.006 323.966 232.198 322.881V322.7C232.198 322.297 232.479 321.594 233.042 320.588L233.886 319.442C239.51 321.614 245.396 323.484 251.543 325.052C250.538 325.495 247.605 325.535 242.744 325.173Z"
    fill="#1B2D42"
  />
  <path
    d="M226.654 315.099C229.386 316.225 231.917 318.175 234.247 320.95C236.135 323.202 237.521 325.495 238.405 327.827L238.948 329.878C238.948 330.24 238.787 330.481 238.466 330.602C237.1 331.205 232.962 330.903 226.051 329.697C219.824 328.611 216.048 327.787 214.722 327.224C213.798 326.781 213.336 326.339 213.336 325.897C213.376 324.771 214.963 322.8 218.097 319.985C220.949 317.411 222.958 315.863 224.123 315.34L225.81 314.797L226.654 315.099Z"
    fill="#1B2D42"
  />
  <path
    d="M232.319 322.036L235.573 326.379C236.336 327.666 236.557 328.41 236.236 328.611L226.594 327.827C221.17 326.902 217.615 326.138 215.927 325.535C216.208 324.73 217.514 323.142 219.844 320.769C222.175 318.437 223.761 317.13 224.605 316.848C225.288 316.607 226.373 316.989 227.859 317.994C229.265 318.96 230.752 320.307 232.319 322.036Z"
    fill="#1B2D42"
  />
  <path
    d="M215.927 325.535C216.048 325.133 216.55 324.409 217.434 323.363C226.795 325.655 232.982 326.942 235.995 327.224C236.356 327.988 236.437 328.45 236.236 328.611L226.594 327.827C221.17 326.902 217.615 326.138 215.927 325.535Z"
    fill="#1B2D42"
  />
  <path
    d="M263.776 1.12083C264.379 0.155671 266.166 -0.186156 269.139 0.0953483C272.072 0.336638 274.523 1.02029 276.492 2.14631C279.866 3.9962 281.554 6.44931 281.554 9.50564C281.554 10.7121 280.991 12.3609 279.866 14.4521L270.646 30.7391L263.897 42.2004C268.798 48.5946 272.916 55.7327 276.25 63.6148C279.987 72.4219 281.855 80.2839 281.855 87.2009C281.855 92.1071 280.208 96.9932 276.913 101.859C273.86 106.363 268.396 112.255 260.522 119.534C242.764 135.982 233.886 150.298 233.886 162.483V163.026C233.444 165.841 233.243 169.179 233.283 173.04L233.162 182.39C232.68 189.548 231.254 198.254 228.884 208.509C226.714 217.879 224.284 226.304 221.592 233.784C215.967 249.307 208.234 261.231 198.391 269.556C185.093 280.776 167.114 286.526 144.455 286.808L99.9813 285.42C88.7322 283.57 75.4542 278.523 60.1474 270.279C25.0342 251.378 6.67409 226.224 5.06707 194.816C4.42427 182.551 5.6697 169.963 8.80338 157.054C11.4951 145.794 15.8943 133.247 22.001 119.413L22.3625 118.629L23.2062 118.81C26.139 119.453 28.0474 120.398 28.9312 121.645L33.0291 119.413L32.2457 121.886C30.6788 127.114 30.2168 134.373 30.8596 143.663C31.7435 157.215 35.4195 168.616 41.8878 177.865C47.1105 185.305 53.4984 190.915 61.0514 194.695C68.8856 198.637 78.5076 200.889 89.9174 201.452C91.7654 201.572 94.6982 200.265 98.7157 197.531C101.649 195.56 105.626 192.443 110.648 188.181C119.768 180.5 132.624 171.934 149.216 162.483C151.787 160.955 156.307 158.985 162.775 156.572C171.935 153.113 178.504 149.916 182.481 146.98C189.11 141.994 193.75 135.097 196.402 126.29C195.84 126.772 195.016 126.953 193.931 126.833C192.766 126.752 191.601 126.37 190.436 125.687C185.735 122.952 181.959 119.775 179.107 116.156C175.973 112.174 174.406 108.113 174.406 103.971C174.406 100.311 175.651 96.7721 178.142 93.3538C180.513 90.1366 183.908 87.1607 188.327 84.4261C184.269 78.5949 181.477 73.4675 179.95 69.0439C178.705 65.4245 178.383 62.6497 178.986 60.7194C180.031 57.3011 182.642 54.7273 186.82 52.9981C188.106 52.4351 189.01 51.8721 189.532 51.3091L190.496 49.3184C192.023 44.935 194.494 41.4765 197.909 38.943C202.087 35.8464 210.704 31.4831 223.761 25.853C232.038 22.2739 240.916 17.3677 250.398 11.1343C258.473 5.82598 262.932 2.48814 263.776 1.12083Z"
    fill="#1B2D42"
  />
  <path
    d="M276.411 5.19709C277.817 6.44375 278.521 7.87138 278.521 9.47998C278.521 10.606 278.199 11.7521 277.556 12.9184L267.914 30.1102L262.31 39.5205L258.754 36.0218L257.368 36.0822C257.288 36.8462 257.569 37.6304 258.212 38.4347C259.618 40.1238 262.249 44.2056 266.106 50.6802C271.048 59.0047 274.423 65.8211 276.23 71.1295C278.159 76.7998 279.123 81.5049 279.123 85.2449C279.123 90.0707 277.617 94.8563 274.603 99.6017C271.59 104.427 266.408 110.239 259.056 117.035C252.065 123.509 246.32 130.004 241.82 136.519C235.352 145.809 232.118 154.314 232.118 162.035L232.178 162.337C231.335 167.605 230.632 174.502 230.069 183.028C229.426 192.719 228.603 200.179 227.598 205.407C225.911 213.973 222.978 222.539 218.8 231.105L216.932 235.086C210.785 248.558 204.196 258.591 197.165 265.187C184.55 277.01 167.657 283.042 146.484 283.283C108.077 283.766 79.2509 277.814 60.007 265.428L58.9825 264.764C45.2024 255.917 34.8974 247.552 28.0676 239.67C15.7739 225.555 9.145 209.127 8.18079 190.387L8 183.751C8 173.376 9.44631 162.84 12.3389 152.142C14.7495 143.134 18.6866 132.437 24.1505 120.051C26.2396 122.021 28.4492 122.484 30.7794 121.438C29.2929 128.516 28.5497 134.408 28.5497 139.113C28.5497 146.271 29.2929 153.088 30.7794 159.562C32.6676 167.766 35.6607 174.783 39.7586 180.615C44.9814 188.054 52.8758 194.087 63.4419 198.711C73.767 203.215 83.2484 204.965 91.8861 203.959C94.2564 203.718 97.0084 202.592 100.142 200.581C102.914 198.852 106.61 196.037 111.23 192.136C117.659 186.707 123.082 182.324 127.501 178.986C134.974 173.436 142.668 168.389 150.582 163.845C153.194 162.317 157.633 160.387 163.9 158.054C173.02 154.676 179.689 151.439 183.908 148.342C190.898 143.154 195.8 136.016 198.612 126.928C198.732 126.646 198.692 126.164 198.491 125.48L198.31 123.972L200.058 121.8L197.768 123.248C196.442 124.093 194.655 124.093 192.405 123.248C188.709 121.841 185.354 119.186 182.341 115.285C179.207 111.264 177.64 107.423 177.64 103.764C177.64 100.305 178.584 97.0882 180.473 94.1123C182.642 90.6538 185.896 87.7785 190.235 85.4862C192.204 84.4004 193.289 83.576 193.489 83.013C193.65 82.45 193.349 82.3293 192.585 82.6511L190.476 83.194L187.945 79.273C185.615 75.5732 183.988 72.5973 183.064 70.3453C181.497 66.5651 181.115 63.4082 181.919 60.8747C182.883 57.8988 184.912 55.7674 188.006 54.4805C189.653 53.7968 190.838 53.0126 191.561 52.1279C192.043 51.5649 192.465 50.7204 192.827 49.5944C193.71 47.0608 195.579 44.6278 198.431 42.2954C203.453 38.1934 212.312 33.2068 225.007 27.3354C233.404 23.4346 242.363 18.4881 251.884 12.4961C260.642 6.98665 265.443 3.48795 266.287 2L266.227 2.12064L270.385 2.30161C272.916 2.90484 274.925 3.86999 276.411 5.19709Z"
    fill="#1B2D42"
  />
  <path
    d="M278.179 9.9279C278.179 11.0539 277.858 12.2 277.215 13.3663L267.573 30.5582L261.968 39.9685L258.413 36.4698L257.027 36.5301C256.946 37.2942 257.228 38.0784 257.87 38.8827C259.277 40.5717 261.908 44.6535 265.765 51.1281C270.706 59.4526 274.081 66.269 275.889 71.5774C277.817 77.2477 278.782 81.9529 278.782 85.6929C278.782 90.5186 277.275 95.3042 274.262 100.05C271.249 104.875 266.066 110.686 258.714 117.483C251.724 123.957 245.979 130.452 241.479 136.967C235.011 146.257 231.777 154.762 231.777 162.483L231.837 162.785L231.596 164.353C229.868 162.101 228.1 159.065 226.293 155.245L221.893 146.015C218.117 138.937 212.854 134.293 206.104 132.081C206.667 131.719 208.274 131.357 210.926 130.995C213.778 130.633 215.887 130.13 217.253 129.487L222.797 126.23C225.971 124.179 228.462 123.012 230.27 122.731L241.66 122.007C247.726 121.162 253.069 118.75 257.69 114.768C262.671 110.546 265.926 104.131 267.452 95.5254C268.577 89.2519 268.758 82.0333 267.995 73.8697C267.633 69.8884 264.56 62.1068 258.774 50.5249C253.833 40.632 252.105 34.9014 253.592 33.333L263.656 21.2685C268.557 14.6733 271.912 8.94264 273.72 4.07663C274.644 4.55921 275.427 5.082 276.07 5.64501C277.476 6.89167 278.179 8.31931 278.179 9.9279Z"
    fill="#1B2D42"
  />
  <path
    d="M205.924 169.601C211.588 166.907 216.389 165.962 220.326 166.766C223.299 167.369 225.75 168.958 227.679 171.532C230.089 174.749 231.274 179.112 231.234 184.622C231.154 190.051 229.808 198.013 227.196 208.509C225.067 216.954 222.717 224.897 220.146 232.337L219.181 234.508C213.396 248.382 206.848 258.858 199.536 265.936C186.398 278.765 168.601 285.32 146.143 285.601C107.374 286.084 78.2063 280.032 58.6409 267.444L57.6164 266.781C43.6354 257.773 33.1697 249.267 26.2194 241.264C13.7249 226.867 6.97542 210.098 5.97104 190.955C5.68981 185.607 6.21209 178.187 7.53788 168.696C8.34138 163.066 9.24533 157.758 10.2497 152.771L11.8165 153.073C9.76761 164.816 11.1537 177.363 15.9747 190.714C20.7957 204.025 28.0474 215.346 37.7296 224.676C46.8896 233.523 56.4312 239.616 66.3545 242.953C76.9207 246.573 88.1095 247.116 99.921 244.582C117.277 240.882 134.11 232.779 150.421 220.272C161.229 211.988 172.036 201.472 182.843 188.724C190.557 179.635 198.25 173.261 205.924 169.601Z"
    fill="#1B2D42"
  />
  <path
    d="M227.859 175.815C229.507 178.951 230.21 182.269 229.969 185.768C229.687 189.669 228.562 196.002 226.594 204.769C224.183 215.346 221.552 224.334 218.699 231.733L217.735 233.905C212.03 247.538 205.622 257.813 198.511 264.73C185.615 277.317 168.159 283.751 146.143 284.033C107.655 284.435 78.7688 278.463 59.4846 266.117L58.4601 265.454C44.68 256.606 34.3549 248.222 27.485 240.299C15.1511 226.144 8.50213 209.655 7.53792 190.835L7.47766 188.06C7.47766 182.711 8.16064 175.412 9.5266 166.163C9.3659 176.981 11.6961 187.879 16.5171 198.858C21.2578 209.595 27.726 218.925 35.9218 226.847C45.1219 235.695 55.3466 241.888 66.5956 245.427C78.2063 249.006 90.1585 249.508 102.452 246.935C119.728 243.235 136.661 234.75 153.254 221.479C161.811 214.602 172.799 203.844 186.218 189.206C192.324 182.53 196.362 178.449 198.331 176.961C206.044 171.129 212.995 168.636 219.182 169.481C222.958 169.963 225.851 172.075 227.859 175.815Z"
    fill="#1B2D42"
  />
  <path
    d="M59.4845 266.117L58.46 265.454L47.01 257.732C42.189 254.274 37.8902 250.755 34.1138 247.176C41.1445 252.404 50.0232 257.33 60.75 261.955C74.2489 267.826 88.1295 271.948 102.392 274.321C141.081 280.876 176.194 273.919 207.731 253.449C194.474 273.517 173.944 283.711 146.143 284.033C107.655 284.435 78.7686 278.463 59.4845 266.117Z"
    fill="#1B2D42"
  />
  <path
    d="M243.588 115.794L228.04 115.13L213.577 114.346C211.89 114.708 209.62 115.874 206.767 117.845C203.995 119.735 201.484 121.806 199.234 124.058C198.511 124.782 198.572 125.847 199.415 127.255C200.179 128.542 201.123 129.427 202.248 129.909C204.136 130.754 206.747 130.975 210.082 130.573C213.095 130.211 215.967 129.447 218.699 128.28C220.347 127.557 221.17 127.416 221.17 127.858C221.17 128.26 220.527 128.763 219.242 129.366C215.907 130.935 212.452 131.96 208.877 132.443L201.344 132.081C199.576 131.236 198.21 129.949 197.246 128.22L196.342 125.747L193.69 124.782C192.204 124.179 192.103 124.018 193.389 124.299C195.117 124.661 196.744 124.179 198.27 122.851L204.056 117.362C207.31 114.627 210.403 113.019 213.336 112.536L229.125 113.381L243.046 114.225C245.737 113.381 247.927 112.235 249.614 110.787C250.779 109.822 251.503 109.48 251.784 109.761C252.025 110.003 251.663 110.666 250.699 111.752C248.73 113.924 246.36 115.271 243.588 115.794Z"
    fill="#1B2D42"
  />
  <path
    d="M213.276 130.693L214.18 130.392L215.264 130.271L218.94 132.925C219.784 133.488 220.166 133.87 220.085 134.071L218.76 133.951C218.077 133.709 217.132 133.227 215.927 132.503L213.276 130.693Z"
    fill="#1B2D42"
  />
  <path
    d="M189.291 69.3455C188.97 68.702 188.95 68.1993 189.231 67.8374C189.512 67.4353 189.934 67.5961 190.496 68.32C192.144 70.2503 192.987 72.623 193.027 75.438C193.068 76.8456 192.867 77.489 192.425 77.3684C191.983 77.2477 191.661 76.6646 191.461 75.619C191.219 73.93 190.496 71.8388 189.291 69.3455Z"
    fill="#1B2D42"
  />
  <path
    d="M210.021 73.8093C209.62 72.7235 209.479 71.316 209.6 69.5868C209.72 67.4152 210.242 65.5854 211.166 64.0974C212.693 61.8052 213.135 62.1269 212.492 65.0626C212.05 66.7516 211.749 69.6069 211.588 73.6284C211.508 74.9555 211.287 75.5587 210.925 75.438C210.644 75.3174 210.343 74.7745 210.021 73.8093Z"
    fill="#1B2D42"
  />
  <path
    d="M195.317 110.365C195.719 109.198 196.201 108.374 196.764 107.891C197.286 107.409 197.828 107.328 198.391 107.65C198.993 107.972 198.973 108.454 198.331 109.098C197.808 109.621 197.406 110.385 197.125 111.39L196.462 113.501L195.619 114.467C195.337 114.507 195.096 114.145 194.896 113.381C194.695 112.617 194.835 111.611 195.317 110.365Z"
    fill="#1B2D42"
  />
  <path
    d="M230.029 91.4838C225.087 91.1621 221.009 90.0964 217.795 88.2867L216.108 88.4677C215.867 88.3068 215.847 87.965 216.048 87.4422L216.47 86.7786C218.639 82.6767 223.018 78.1727 229.607 73.2664C235.714 68.7221 241.137 65.6457 245.878 64.0371C248.128 63.2328 249.313 62.9915 249.434 63.3132L248.289 64.7007L246.481 66.1484L245.577 66.6913C247.425 68.4607 249.032 71.0948 250.398 74.5935C251.282 76.9662 251.703 79.359 251.663 81.7719C251.583 84.1446 251.101 86.095 250.217 87.6232L251.061 88.2867C251.302 88.8095 250.699 89.2318 249.253 89.5535C242.061 91.2425 235.653 91.8859 230.029 91.4838Z"
    fill="#1B2D42"
  />
  <path
    d="M243.588 67.6564C244.231 67.938 244.954 68.6618 245.758 69.8281C246.682 71.1552 247.485 72.7436 248.168 74.5935C249.253 77.3684 249.795 79.9823 249.795 82.4354C249.795 84.4864 249.393 86.2559 248.59 87.7438C242.202 89.5937 235.995 90.2773 229.969 89.7948C225.348 89.3926 221.472 88.4275 218.338 86.8993C220.588 83.6419 224.947 79.6405 231.415 74.8951C237.481 70.4313 241.539 68.0184 243.588 67.6564Z"
    fill="#1B2D42"
  />
  <path
    d="M235.935 70.371L236.357 70.1297C238.526 72.1404 240.033 75.0761 240.876 78.9367C241.84 83.1191 241.599 86.8993 240.153 90.2773L239.792 90.8806H239.49L224.485 90.2773H224.424L224.364 90.217L220.447 88.5883C219.081 88.0253 218.137 87.1607 217.615 85.9945L220.206 82.5561L220.387 82.3751C222.838 79.8014 227.578 76.1217 234.609 71.3361L235.935 70.371Z"
    fill="#1B2D42"
  />
  <path
    d="M236.055 71.5774C238.667 75.237 239.972 79.3188 239.972 83.8229C239.972 85.7934 239.651 87.8041 239.008 89.8551C235.473 90.2572 232.058 90.3377 228.763 90.0964C225.509 89.8551 223.159 89.3926 221.713 88.709L219.543 87.7438C218.82 87.3015 218.579 86.9194 218.82 86.5977C220.105 84.6272 222.857 81.8724 227.076 78.3335C230.852 75.1163 233.845 72.8643 236.055 71.5774Z"
    fill="#1B2D42"
  />
  <path
    d="M229.848 74.5935C232.218 77.0466 233.042 80.1834 232.319 84.0038C231.636 87.7438 230.17 89.6138 227.92 89.6138C224.786 89.6138 222.717 86.8993 221.713 81.4703L226.956 76.9461L229.848 74.5935Z"
    fill="#1B2D42"
  />
  <path
    d="M73.5861 23.2592C65.9126 31.3826 63.6226 36.5703 66.7161 38.8223L67.6803 38.7017L68.524 37.7365C69.5284 35.6856 70.5127 34.3987 71.4769 33.8759L76.4185 33.6346L77.0814 33.9965L76.5993 34.5998C75.1931 35.5247 73.7066 37.1333 72.1398 39.4256L68.1624 46.1817L67.0777 48.0517C64.3458 52.9981 63.3816 56.1349 64.1851 57.462C64.7475 58.5075 65.6314 58.5679 66.8367 57.6429C67.841 56.8788 68.5843 55.8936 69.0664 54.6871C69.5887 53.2394 70.0105 52.5557 70.3319 52.6362C70.6131 52.6764 70.7538 53.4002 70.7538 54.8078C70.7538 59.0706 70.0306 62.3682 68.5843 64.7006C67.2585 66.8723 64.7476 68.9835 61.0514 71.0345C59.5248 71.8388 58.44 73.8495 57.7972 77.0667C57.6365 77.9515 57.6968 78.4542 57.978 78.5748C58.2994 78.7759 58.8619 78.4341 59.6654 77.5493C61.1519 75.9809 62.3973 74.875 63.4017 74.2316C65.2497 73.0654 67.5598 72.3415 70.3319 72.06C70.9345 72.06 71.1756 72.1806 71.0551 72.4219L69.2472 74.7745C67.1581 77.2276 65.4104 80.0024 64.0043 83.099C62.3169 86.7585 61.3527 90.4382 61.1117 94.138C60.3484 105.036 57.2548 112.315 51.8312 115.975C49.3001 117.704 44.9813 118.79 38.8746 119.232C36.2632 119.433 34.3348 119.976 33.0894 120.861C31.0806 122.309 28.9714 122.831 26.7618 122.429C25.1146 122.067 23.8089 121.243 22.8447 119.956C22.3224 118.87 21.3582 117.523 19.9521 115.914C18.1442 113.783 14.9302 111.531 10.31 109.158C7.29684 107.59 4.88632 105.097 3.07843 101.678C1.47142 98.6622 0.487126 95.2841 0.125548 91.5441C-0.276205 87.2813 0.286249 83.3202 1.81291 79.6606C3.2994 76.0413 5.54922 73.0251 8.56236 70.6122C14.0262 66.269 17.8228 62.2274 19.9521 58.4874C21.5591 55.6724 22.4429 52.4753 22.6036 48.8962C22.684 47.7299 22.8246 47.0865 23.0255 46.9659L23.6281 47.5088C25.2753 49.9217 26.0989 53.1791 26.0989 57.281C26.822 54.667 28.0675 51.7715 29.8352 48.5946C33.3706 42.2808 37.7497 37.9577 42.9725 35.6252C43.7359 35.2231 44.1778 35.0823 44.2983 35.203C44.459 35.2834 44.238 35.6856 43.6354 36.4094C42.2293 38.0583 41.0039 40.2902 39.9594 43.1052C38.955 45.7996 38.6939 47.3479 39.176 47.75L39.7183 48.1723C40.1201 48.2527 40.6424 47.9511 41.2852 47.2675C43.535 45.0154 45.3429 42.0395 46.7088 38.3398C48.356 33.9563 50.1036 30.6788 51.9517 28.5072C54.0408 26.0139 56.5116 24.6466 59.3641 24.4053L60.3283 24.5259L59.7256 25.3101C58.5204 26.4361 57.737 27.8638 57.3754 29.593C57.0941 31.081 57.1544 32.3879 57.5562 33.514C57.757 34.077 58.1387 34.2982 58.7012 34.1775C59.3038 34.0971 59.7658 33.6346 60.0872 32.7901C61.7746 28.4871 63.944 25.0085 66.5956 22.3543C69.1668 19.7806 73.9879 16.1813 81.0587 11.5566C82.4649 10.6317 83.2885 10.2094 83.5295 10.2898C83.7706 10.4105 83.4692 11.2349 82.6256 12.7631C81.6614 14.4923 79.5722 17.0057 76.3582 20.3034L73.5861 23.2592Z"
    fill="#1B2D42"
  />
  <path
    d="M81.7217 12.1598C80.7977 13.8488 78.7688 16.3221 75.6351 19.5795L72.8028 22.475C70.5128 24.9683 68.8254 26.9991 67.7407 28.5675C65.6917 31.5032 64.6673 33.9965 64.6673 36.0475C64.6673 37.3746 65.0891 38.5207 65.9328 39.4859C66.4551 40.0489 66.9372 40.3103 67.3791 40.2701C67.8612 40.2299 68.5442 39.5864 69.428 38.3397C70.2315 37.0931 70.9346 36.2285 71.5372 35.7459C72.5416 34.9014 73.7268 34.4992 75.0928 34.5394C73.767 35.6252 72.3809 37.2539 70.9346 39.4256L67.1983 45.6388L66.1738 47.5691C63.6026 52.3547 62.317 55.793 62.317 57.8842C62.317 58.4472 62.4174 58.9298 62.6183 59.3319C62.9397 59.8547 63.4017 60.1161 64.0044 60.1161C65.2096 60.1161 66.4149 59.533 67.6201 58.3668C68.504 57.4821 69.2071 56.4164 69.7293 55.1697C69.649 57.7032 69.0464 60.1161 67.9215 62.4084C66.3546 65.5854 63.8838 68.1591 60.5091 70.1297C59.2235 70.8535 58.1187 72.2007 57.1947 74.1713C56.351 75.9407 55.9291 77.5292 55.9291 78.9367V79.0574C56.0095 79.9019 56.2505 80.4448 56.6523 80.6861L58.1589 80.4448L60.4489 78.2732C61.6541 76.9059 62.6987 75.9206 63.5825 75.3174C65.1092 74.312 66.9573 73.6485 69.1267 73.3267L68.4638 74.1109C65.8524 77.0868 63.9843 79.54 62.8594 81.4703C60.9711 84.7679 59.8864 88.2465 59.6052 91.9061C58.882 102.483 55.9894 109.761 50.9273 113.743C48.115 115.955 43.9569 117.262 38.4529 117.664C35.5201 117.825 33.7323 118.187 33.0895 118.75C31.4423 120.117 29.7549 120.66 28.0274 120.378C26.5409 120.177 25.3758 119.514 24.5321 118.388L19.8919 112.898C17.8028 110.606 14.4883 108.213 9.94847 105.72C8.26111 104.795 6.77462 103.046 5.48901 100.472C4.16323 97.8177 3.33963 94.8619 3.01823 91.6044L2.89771 88.8899C2.89771 85.351 3.58069 82.0936 4.94665 79.1177C6.27243 76.1016 8.20085 73.5881 10.7319 71.5774C15.9949 67.395 19.5705 63.3534 21.4587 59.4526C22.7041 56.8788 23.4273 53.6415 23.6282 49.7407C24.5522 51.7916 25.0142 54.3051 25.0142 57.281C25.0142 59.332 24.8535 61.1818 24.5321 62.8307L24.4116 64.7006C24.4518 65.5854 24.8334 65.0425 25.5566 63.0719C26.1994 60.1362 27.3243 56.8989 28.9313 53.36C32.1855 46.3626 36.3236 41.195 41.3455 37.8572C40.2206 39.5864 39.3166 41.3559 38.6337 43.1655C37.9507 44.9752 37.6092 46.4833 37.6092 47.6897C37.6092 48.5745 37.8101 49.1978 38.2118 49.5597C39.0555 50.3238 40.3411 49.801 42.0686 47.9913L44.9613 43.9497L47.6128 38.8223C49.5413 35.0019 51.0679 32.2874 52.1928 30.6788C54.0409 28.0648 55.9693 26.4361 57.9781 25.7927C56.7728 27.4415 56.1702 29.2914 56.1702 31.3423C56.1702 32.4282 56.3108 33.2727 56.592 33.8759C56.9938 35.0823 57.6165 35.6856 58.4602 35.6856C59.3842 35.7258 60.248 34.9014 61.0515 33.2123C63.1004 28.5876 65.4909 24.908 68.2228 22.1733C70.0307 20.3637 73.4657 17.7497 78.5277 14.3314L81.7217 12.1598Z"
    fill="#1B2D42"
  />
  <path
    d="M51.5299 44.1307C52.7352 43.1656 53.5588 42.7835 54.0007 42.9846C54.2819 43.065 54.061 43.5677 53.3378 44.4926C51.4094 47.3479 50.3246 49.5396 50.0836 51.0678C50.0032 51.671 50.1238 53.8024 50.4452 57.462C50.7264 60.9205 50.0635 64.1578 48.4565 67.1739C47.2512 69.3455 45.3831 71.6176 42.852 73.9903C40.321 76.4434 38.7943 78.7156 38.2721 80.8067C37.6694 83.1392 37.81 84.6674 38.6939 85.3912C39.5376 86.1151 40.1201 85.8939 40.4415 84.7277C41.1647 82.2344 42.0686 80.2236 43.1534 78.6955C44.0774 77.3282 45.3429 76.0815 46.9499 74.9555C47.6329 74.5131 48.0347 74.2919 48.1552 74.2919C48.3561 74.2919 48.336 74.6136 48.0949 75.2571C45.8853 81.1687 45.3429 84.5065 46.4678 85.2706C46.8294 85.4315 47.4119 85.15 48.2154 84.4261C49.1395 83.6218 49.9631 82.5963 50.6862 81.3496C52.695 78.0922 53.6994 75.2571 53.6994 72.8442C53.6994 70.9943 54.0409 70.8133 54.7239 72.3013C55.0453 72.9849 55.2461 74.0104 55.3265 75.3777C55.4068 77.0668 55.2662 78.6552 54.9046 80.1432C53.9806 83.6821 51.0679 88.1057 46.1665 93.4141C42.5909 97.2748 40.9638 100.452 41.2852 102.945C41.5263 104.715 42.2494 105.639 43.4547 105.72C44.4591 105.72 45.5639 105.197 46.7691 104.152C48.2154 102.865 49.3805 101.035 50.2644 98.6622C50.5054 97.9785 50.7264 97.6166 50.9273 97.5764C51.1282 97.4959 51.3491 97.7976 51.5902 98.4812C52.7553 101.698 52.6548 104.755 51.2889 107.65C49.7622 110.707 47.3919 112.396 44.1778 112.717C42.9324 112.838 41.6066 113.26 40.2005 113.984C38.7943 114.668 37.569 115.492 36.5244 116.457L32.065 119.594C31.2615 120.278 30.3173 120.7 29.2326 120.861L26.4002 120.68C25.4762 120.439 24.3714 119.333 23.0858 117.362L21.5189 115.432L19.5905 112.898L17.9032 109.46C14.207 99.6474 14.3477 91.5642 18.325 85.2103C19.6106 83.2397 20.1731 83.0387 20.0124 84.6071C19.932 86.095 20.153 87.3618 20.6753 88.4074C21.2377 89.4932 21.9207 89.9556 22.7242 89.7948C23.3268 89.6741 23.8491 88.8899 24.291 87.4422C24.733 85.914 24.9539 84.1044 24.9539 82.0132C24.9941 76.9863 26.9024 72.3214 30.6789 68.0184C33.6519 64.6403 36.0423 62.8106 37.8502 62.529C38.5332 62.4888 38.6135 62.7904 38.0913 63.4339C35.5602 66.45 33.9934 69.0238 33.3908 71.1552C32.8685 72.9246 33.0493 73.8898 33.9331 74.0506C35.1786 74.2115 36.5445 73.3268 38.031 71.3964C39.5978 69.3455 41.4459 65.9473 43.5752 61.202L45.5036 56.7381C45.9857 55.3306 46.2669 53.8828 46.3473 52.3949C46.508 49.3385 48.2355 46.5838 51.5299 44.1307Z"
    fill="#1B2D42"
  />
  <path
    d="M78.2865 226.968C79.6525 222.142 84.1722 220.091 91.8457 220.815C98.3541 221.418 106.389 223.912 115.951 228.295C124.589 232.276 132.302 236.76 139.092 241.747C146.042 246.814 149.658 250.695 149.939 253.389C150.421 258.336 146.504 268.108 138.188 282.706C130.474 296.299 124.85 304.502 121.314 307.317C128.184 315.481 131.258 321.413 130.535 325.113C130.253 326.6 129.289 328.028 127.642 329.395L122.399 333.135C118.823 335.589 110.487 336.916 97.3899 337.117C84.815 337.278 77.3625 336.534 75.0323 334.885C70.9344 331.949 68.6645 330.139 68.2226 329.456C66.1335 326.48 66.3946 322.458 69.006 317.391C72.9432 309.67 75.1127 303.457 75.5144 298.752C75.8358 294.408 74.6908 290.065 72.0794 285.722C70.2314 282.625 68.765 279.207 67.6802 275.467C65.792 268.872 65.8523 263.061 67.861 258.034L72.2 246.995L78.2865 226.968Z"
    fill="#1B2D42"
  />
  <path
    d="M129.088 280.534C138.369 268.269 143.109 256.425 143.31 245.004C147.489 248.543 149.698 251.338 149.939 253.389C150.421 258.336 146.504 268.108 138.188 282.706C130.474 296.299 124.85 304.502 121.314 307.317C126.738 313.752 129.791 318.718 130.474 322.217C131.037 324.992 130.073 327.405 127.582 329.456C122.841 324.067 118.502 319.885 114.565 316.909C112.034 314.978 108.157 312.545 102.934 309.61C99.1978 307.478 98.4144 305.467 100.584 303.577C101.347 302.934 104.481 301.345 109.985 298.812C115.409 296.278 121.776 290.186 129.088 280.534Z"
    fill="#1B2D42"
  />
  <path
    d="M77.2622 226.727C78.2666 224.394 79.0098 223.369 79.4919 223.65C79.974 223.932 79.9138 225.118 79.3112 227.209L74.7312 241.687L68.8254 258.396C66.8568 263.302 66.8568 269.033 68.8254 275.588C69.87 279.127 71.256 282.324 72.9835 285.179C75.7958 289.844 76.981 294.529 76.5391 299.234C76.0971 303.939 73.9076 310.153 69.9704 317.874C67.8009 322.056 67.2987 325.394 68.4638 327.887C69.1468 329.335 70.9346 330.984 73.8272 332.834L75.6351 334.04C77.7242 335.528 84.8955 336.212 97.149 336.091C110.045 335.971 118.261 334.684 121.797 332.231L123.484 331.084C125.493 329.757 126.859 328.752 127.582 328.068C128.707 326.983 129.35 325.836 129.51 324.63C129.791 322.901 129.269 320.769 127.943 318.236C126.577 315.622 124.247 312.364 120.953 308.464C118.1 309.992 116.433 310.454 115.951 309.851C115.589 309.409 115.589 309.027 115.951 308.705L118.723 306.473C123.785 302.371 129.952 294.67 137.224 283.369C145.821 270.018 149.698 260.065 148.855 253.51L150.964 253.269L151.084 255.199C151.084 262.558 147.931 271.607 141.623 282.344C136.119 291.674 129.832 299.837 122.761 306.835C126.176 311.017 128.626 314.295 130.113 316.667C132.001 319.603 132.945 321.976 132.945 323.785L132.403 326.017C132.162 327.546 131.238 328.852 129.631 329.938L124.689 332.834L123.002 333.98C119.225 336.594 110.728 338.001 97.5106 338.202C84.7348 338.444 77.0413 337.619 74.4299 335.729L71.2962 334.704C68.2027 332.773 66.2743 331.004 65.5109 329.395C64.0646 326.46 64.5869 322.539 67.0778 317.633C70.9346 310.112 72.8228 303.376 72.7425 297.425C72.7023 292.679 71.3765 288.155 68.7651 283.852C66.676 280.434 65.2096 277.317 64.3659 274.502C62.5982 268.631 62.7589 263.081 64.848 257.853L77.2622 226.727Z"
    fill="#1B2D42"
  />
  <path
    d="M82.1436 320.468C84.1925 318.939 85.679 318.578 86.603 319.382C87.8886 320.387 89.1943 322.096 90.5201 324.509C92.1673 327.405 93.0913 330.159 93.2922 332.773C93.4931 335.066 93.1918 337.499 92.3883 340.072C91.5446 342.887 90.2992 345.2 88.652 347.01C88.2904 347.452 87.748 347.593 87.0249 347.432C85.5384 347.15 83.1881 345.079 79.9741 341.219C77.1216 337.76 75.374 335.247 74.7312 333.678C74.2893 332.512 74.9522 330.361 76.7199 327.224C78.4876 324.087 80.2955 321.835 82.1436 320.468Z"
    fill="#1B2D42"
  />
  <path
    d="M85.8195 321.855C87.065 322.86 88.2301 324.228 89.3148 325.957C90.7209 328.249 91.5244 330.562 91.7253 332.894V333.92C91.7253 337.418 90.3192 340.716 87.5069 343.812C86.7436 343.973 84.8152 342.586 81.7217 339.65C78.6282 336.674 76.8002 334.503 76.2377 333.135C75.9565 332.492 76.5792 330.964 78.1059 328.551C79.7129 325.937 81.4204 323.966 83.2282 322.639C84.4335 321.755 85.2973 321.493 85.8195 321.855Z"
    fill="#1B2D42"
  />
  <path
    d="M86.5426 340.193C87.0247 340.193 87.7478 339.811 88.712 339.047C89.7968 338.202 90.7409 337.197 91.5444 336.031C91.0623 338.765 89.7164 341.359 87.5068 343.812C86.7434 343.973 84.815 342.586 81.7215 339.65C78.628 336.674 76.8 334.503 76.2376 333.135C75.9965 332.613 76.4987 331.286 77.7442 329.154C79.1905 332.572 80.9783 335.408 83.1076 337.66C84.7146 339.349 85.8596 340.193 86.5426 340.193Z"
    fill="#1B2D42"
  />
  <path
    d="M107.876 320.287C108.88 319.683 110.407 320.206 112.456 321.855C114.304 323.343 115.911 325.153 117.277 327.284C118.803 329.737 119.928 333.477 120.651 338.504C121.334 343.29 121.314 345.964 120.591 346.527C119.948 347.09 118.843 347.211 117.277 346.889L113.781 345.863C110.929 344.858 107.916 343.189 104.742 340.857C101.849 338.765 100.202 337.197 99.8004 336.151C99.3183 335.025 100.041 332.412 101.97 328.31C103.979 324.047 105.947 321.373 107.876 320.287Z"
    fill="#1B2D42"
  />
  <path
    d="M112.034 324.449C113.721 325.736 114.967 327.023 115.77 328.31C117.337 330.803 118.402 333.638 118.964 336.815C119.486 339.831 119.366 342.023 118.603 343.39C118.442 343.712 118.04 343.893 117.397 343.933C115.348 343.973 112.416 342.867 108.599 340.615C105.063 338.605 102.934 337.016 102.211 335.85C101.608 334.925 102.191 332.713 103.959 329.214C105.686 325.836 107.132 323.765 108.298 323.001C109.021 322.599 110.266 323.082 112.034 324.449Z"
    fill="#1B2D42"
  />
  <path
    d="M103.597 329.938C106.61 333.598 109.483 336.413 112.215 338.383C115.148 340.475 117.478 341.279 119.205 340.796C119.125 341.922 118.924 342.787 118.603 343.39C118.442 343.712 118.04 343.893 117.397 343.933C115.348 343.973 112.416 342.867 108.599 340.615C105.064 338.605 102.934 337.016 102.211 335.85C101.649 335.005 102.111 333.035 103.597 329.938Z"
    fill="#1B2D42"
  />
  <path
    d="M128.124 317.572C130.173 317.452 133.126 319.724 136.983 324.389C140.92 329.174 143.029 333.176 143.31 336.393C143.351 336.835 143.049 337.076 142.407 337.117L141.141 337.056C139.213 337.257 135.697 336.815 130.595 335.729C125.533 334.684 122.741 333.819 122.218 333.135C121.857 332.653 121.716 331.567 121.797 329.878C121.877 328.269 122.138 326.741 122.58 325.293C123.102 323.444 123.745 321.855 124.508 320.528C125.633 318.638 126.839 317.653 128.124 317.572Z"
    fill="#1B2D42"
  />
  <path
    d="M128.546 319.683C129.269 319.804 130.756 321.131 133.005 323.665C135.456 326.359 137.364 328.953 138.73 331.446C139.534 332.975 139.936 334.06 139.936 334.704L139.875 335.066C139.152 335.508 136.501 335.206 131.921 334.161C127.421 333.115 124.769 332.271 123.966 331.627L123.845 330.542C123.845 328.41 124.287 326.218 125.171 323.966C126.055 321.714 127.18 320.287 128.546 319.683Z"
    fill="#1B2D42"
  />
  <path
    d="M124.448 326.198L125.171 323.966C126.055 321.714 127.18 320.287 128.546 319.683C129.269 319.804 130.756 321.131 133.005 323.665C135.456 326.359 137.364 328.953 138.73 331.446C139.534 332.975 139.936 334.06 139.936 334.704L139.875 335.066C138.991 335.548 136.039 335.166 131.017 333.92C130.735 333.115 129.992 332.029 128.787 330.662L124.448 326.198Z"
    fill="#1B2D42"
  />
  <path
    d="M119.446 267.444C119.567 265.916 121.917 265.293 126.497 265.574C129.148 265.695 131.338 266.56 133.066 268.168C135.115 270.058 136.159 272.753 136.199 276.251C136.239 279.308 136.561 284.616 137.163 292.176L138.248 301.949C138.489 304.724 138.288 306.272 137.646 306.593C137.284 306.795 136.701 306.493 135.898 305.689L134.271 304C131.258 301.185 128.024 296.258 124.569 289.221C120.511 280.896 118.743 274.14 119.265 268.952L119.446 267.444Z"
    fill="#1B2D42"
  />
  <path
    d="M126.377 267.143C128.184 267.183 129.791 267.706 131.198 268.711C133.447 270.279 134.592 272.793 134.633 276.251C134.673 280.595 134.994 285.943 135.597 292.297L136.139 300.079L135.838 302.13L134.994 301.526C132.383 299.073 129.55 294.71 126.497 288.436C123.042 281.318 121.314 275.306 121.314 270.4L121.435 268.59C121.475 268.269 121.937 267.947 122.821 267.625L126.377 267.143Z"
    fill="#1B2D42"
  />
  <path
    d="M122.821 267.625L126.377 267.143C128.184 267.183 129.791 267.706 131.198 268.711C133.447 270.279 134.592 272.793 134.633 276.251C134.673 280.595 134.994 285.943 135.597 292.297L136.139 300.079L135.958 301.888C135.396 297.786 134.653 293.685 133.729 289.583C132.684 284.958 131.76 281.942 130.957 280.534C130.354 279.529 129.189 278.463 127.461 277.337C125.774 276.211 123.845 275.226 121.676 274.381C121.435 273.014 121.314 271.687 121.314 270.4L121.435 268.59C121.475 268.269 121.937 267.947 122.821 267.625Z"
    fill="#1B2D42"
  />
  <path
    d="M185.133 169.601C178.424 173.663 172.659 177.222 167.837 180.278C158.637 186.15 153.033 190.252 151.024 192.584C150.14 196.284 151.988 205.875 156.568 221.358C161.429 237.725 163.86 246.352 163.86 247.236C163.86 253.309 161.871 259.522 157.894 265.876C152.109 275.045 144.034 278.302 133.668 275.648L126.738 273.477C123.845 272.471 121.555 271.003 119.868 269.073C115.047 263.644 113.32 252.404 114.686 235.353C115.569 224.535 116.534 215.949 117.578 209.595C118.944 201.311 120.752 194.695 123.002 189.749C125.091 185.084 128.948 180.962 134.572 177.383C137.103 175.774 141.523 173.563 147.83 170.747C151.004 169.38 154.921 166.163 159.581 161.096C163.117 157.275 165.909 153.797 167.958 150.66C169.324 148.569 172.679 146.92 178.022 145.714L190.496 145.291C193.349 146.136 193.891 149.976 192.123 156.813C190.396 163.489 188.066 167.751 185.133 169.601Z"
    fill="#1B2D42"
  />
  <path
    d="M154.7 232.88L155.122 216.291L160.907 235.594C162.836 242.069 163.82 245.949 163.86 247.236C163.86 252.062 162.374 257.391 159.401 263.222C155.182 271.506 149.276 275.91 141.683 276.432C147.911 270.561 151.848 261.533 153.495 249.348C154.098 245.045 154.499 239.555 154.7 232.88Z"
    fill="#1B2D42"
  />
  <path
    d="M175.551 144.387C179.97 143.22 184.992 143.18 190.617 144.266C192.143 144.547 192.826 144.97 192.666 145.533C192.465 146.096 191.38 146.277 189.412 146.076C185.153 145.633 181.075 145.975 177.178 147.101C173.12 148.267 170.208 149.997 168.44 152.289C164.463 157.436 161.289 161.237 158.918 163.69C155.222 167.55 151.667 170.225 148.252 171.713L146.806 172.376C141.221 174.869 137.043 177.021 134.271 178.831C129.329 182.168 125.894 185.949 123.966 190.171C119.868 199.179 117.136 214.26 115.77 235.413C115.529 238.872 115.409 241.988 115.409 244.763C115.409 255.34 117.016 262.84 120.23 267.263C122.118 269.837 125.493 271.888 130.354 273.416L133.909 274.623C140.779 276.352 146.625 275.347 151.446 271.607C155.222 268.671 158.195 264.267 160.365 258.396C161.972 253.972 162.775 250.252 162.775 247.236C162.775 246.11 161.309 240.661 158.376 230.889C152.229 210.781 149.437 197.933 150 192.343C150.321 189.447 150.823 188.221 151.506 188.663C151.868 188.904 152.189 189.427 152.47 190.232C154.6 187.819 159.983 183.878 168.621 178.408C175.732 173.864 180.734 170.868 183.626 169.42C185.394 168.536 186.418 168.234 186.7 168.516C186.981 168.797 186.318 169.702 184.711 171.23L169.465 181.244C160.345 186.994 154.801 190.935 152.832 193.067C152.792 196.204 153.655 201.813 155.423 209.897C157.07 217.256 158.898 224.213 160.907 230.768L164.282 242.109C165.326 245.688 165.849 247.96 165.849 248.925C165.849 251.941 164.864 255.702 162.896 260.206C160.365 265.876 157.05 270.32 152.952 273.537C147.689 277.639 141.161 278.684 133.367 276.674L127.461 275.467C121.877 273.738 118.141 271.224 116.252 267.927C113.038 262.216 111.933 251.74 112.938 236.499C113.741 224.475 114.685 215.024 115.77 208.147C117.016 200.185 118.663 193.951 120.712 189.447C122.761 184.943 126.597 180.902 132.222 177.323C134.954 175.553 139.534 173.261 145.962 170.446L147.408 169.843C151.747 167.671 155.725 164.233 159.34 159.527L165.788 150.298C168.239 147.443 171.493 145.472 175.551 144.387Z"
    fill="#1B2D42"
  />
  <path
    d="M159.039 251.157C161.249 247.578 162.996 246.07 164.282 246.633C165.809 247.276 167.175 248.744 168.38 251.037C169.384 252.967 170.148 255.219 170.67 257.793C172.88 269.133 173.02 277.518 171.092 282.947L169.284 286.808C168.52 287.974 167.918 288.517 167.476 288.436C166.954 288.356 166.351 287.451 165.668 285.722L163.981 281.318C161.61 275.608 158.557 270.742 154.821 266.72L154.278 266.419C153.274 265.574 153.495 263.242 154.941 259.421C156.066 256.405 157.432 253.651 159.039 251.157Z"
    fill="#1B2D42"
  />
  <path
    d="M155.785 264.368C155.785 263.001 156.327 260.889 157.412 258.034C158.577 254.937 159.863 252.444 161.269 250.554C162.354 249.146 163.117 248.563 163.559 248.805C164.563 249.247 165.507 250.373 166.391 252.183C167.275 254.073 167.998 256.466 168.561 259.361C169.485 264.066 169.866 268.892 169.706 273.838C169.545 278.624 169.003 281.479 168.079 282.404L167.476 282.826C167.155 282.786 166.572 281.7 165.728 279.569L162.474 272.813C160.706 269.877 158.537 267.304 155.966 265.092C155.845 264.971 155.785 264.73 155.785 264.368Z"
    fill="#1B2D42"
  />
  <path
    d="M163.619 254.173L165.668 261.05C166.271 263.946 166.672 267.324 166.873 271.184C167.114 275.085 167.094 278.664 166.813 281.922L165.728 279.569L162.474 272.813C160.706 269.877 158.537 267.304 155.966 265.092C155.845 264.971 155.785 264.73 155.785 264.368C155.785 263.001 156.327 260.889 157.412 258.034C158.577 254.937 159.863 252.444 161.269 250.554L162.173 249.589C162.293 250.272 162.775 251.801 163.619 254.173Z"
    fill="#1B2D42"
  />
  <path
    d="M147.348 262.86C150.401 264.871 152.249 268.128 152.892 272.632L155.182 286.627L157.774 299.958C158.256 303.215 158.075 304.985 157.231 305.266C155.705 305.789 151.627 301.929 144.998 293.685C138.65 285.802 134.974 280.494 133.97 277.759C130.876 269.475 130.494 263.966 132.825 261.231C133.307 260.628 134.11 260.246 135.235 260.085L138.309 260.145L139.634 260.326C142.929 260.769 145.5 261.613 147.348 262.86Z"
    fill="#1B2D42"
  />
  <path
    d="M153.615 286.928C154.981 294.046 155.664 298.329 155.664 299.777L155.484 300.863C154.037 300.3 150.663 296.721 145.359 290.125C139.976 283.41 136.782 278.684 135.778 275.95C134.572 272.411 133.97 269.294 133.97 266.6C133.97 264.71 134.311 263.342 134.994 262.498C135.637 261.734 136.641 261.472 138.007 261.714L139.454 261.895C142.628 262.337 144.978 263.101 146.504 264.187C149.076 266.037 150.683 269.274 151.325 273.899L153.615 286.928Z"
    fill="#1B2D42"
  />
  <path
    d="M149.518 279.629C148.634 276.09 148.553 271.989 149.276 267.324C150.241 269.093 150.924 271.285 151.325 273.899L153.615 286.928C154.981 294.046 155.664 298.329 155.664 299.777L155.484 300.863L155.062 300.622L151.988 288.979L149.518 279.629Z"
    fill="#1B2D42"
  />
  <path
    d="M233.283 73.5077C234.006 73.7088 234.589 74.3321 235.031 75.3777C235.432 76.3429 235.633 77.489 235.633 78.8161C235.633 80.2236 235.312 81.4301 234.669 82.4354C234.066 83.4408 233.323 83.9435 232.439 83.9435C231.555 83.9435 230.792 83.4408 230.149 82.4354C229.506 81.4301 229.185 80.2236 229.185 78.8161C229.185 77.8911 229.346 77.0064 229.667 76.1619L233.283 73.5077Z"
    fill="#1B2D42"
  />
</svg>
