<svg width="308" height="18" viewBox="0 0 308 18" fill="none" xmlns="http://www.w3.org/2000/svg">
<path d="M7.81367 1.4043L9.60078 6.96094L13.4973 1.73633C13.6275 1.56055 13.7251 1.44661 13.7902 1.39453C13.8553 1.34245 13.953 1.31641 14.0832 1.31641C14.2134 1.31641 14.3794 1.45638 14.5813 1.73633L18.2141 6.90234L19.9719 1.4043H25.5578L20.4602 16.5996C20.2388 17.2507 19.8645 17.5762 19.3371 17.5762C18.8098 17.5762 18.3378 17.2767 17.9211 16.6777L13.5559 10.3789L8.8586 16.6973C8.43542 17.2572 7.96341 17.5371 7.44258 17.5371C6.92175 17.5371 6.54089 17.2116 6.3 16.5605L0.811722 1.4043H7.81367ZM37.0297 1.4043H43.1137V17H37.0297V11.2383L33.7875 11.5215V17H27.7133V1.4043H33.7875V7.03906L37.0297 6.77539V1.4043ZM56.7047 7.33203C56.7047 6.23177 56.1773 5.68164 55.1227 5.68164C54.6669 5.68164 54.1591 5.9681 53.5992 6.54102C52.7594 7.4069 52.1734 8.4388 51.8414 9.63672C51.7372 10.0143 51.6852 10.3626 51.6852 10.6816C51.6852 11.7624 52.232 12.3027 53.3258 12.3027C53.762 12.3092 54.26 12.0195 54.8199 11.4336C55.6337 10.5742 56.2099 9.53255 56.5484 8.30859C56.6526 7.93099 56.7047 7.60547 56.7047 7.33203ZM54.0387 17.3809C51.7275 17.3809 49.7223 16.6322 48.023 15.1348C47.4827 14.6595 47.0139 14.1159 46.6168 13.5039C45.7704 12.2083 45.3473 10.7598 45.3473 9.1582C45.3473 7.55013 45.7379 6.1276 46.5191 4.89062C47.3004 3.65365 48.3486 2.6901 49.6637 2C50.9788 1.3099 52.3395 0.964844 53.7457 0.964844C55.1585 0.964844 56.402 1.15365 57.4762 1.53125C58.5504 1.90885 59.4846 2.45247 60.2789 3.16211C61.0797 3.86523 61.7079 4.72786 62.1637 5.75C62.6194 6.77214 62.8473 7.92773 62.8473 9.2168C62.8473 10.8184 62.4404 12.2441 61.6266 13.4941C60.8128 14.7376 59.7288 15.6979 58.3746 16.375C57.0204 17.0456 55.5751 17.3809 54.0387 17.3809ZM65.0906 7.51758C65.8133 7.51758 66.3244 7.18229 66.6238 6.51172C66.7475 6.21224 66.8224 5.8737 66.8484 5.49609H65.0906V1.38477H71.0281V5.32031C71.0281 7.625 69.9409 9.08984 67.7664 9.71484C67.0177 9.92969 66.1258 10.0371 65.0906 10.0371V7.51758ZM78.8965 17.3809C75.9733 17.3809 74.0332 17.0195 73.0762 16.2969V11.8242C73.1022 11.8307 73.1966 11.86 73.3594 11.9121C73.5286 11.9642 73.7402 12.0293 73.9941 12.1074C74.5866 12.2897 75.2083 12.4622 75.8594 12.625C76.5169 12.7812 77.0443 12.8594 77.4414 12.8594C78.0924 12.8594 78.418 12.6608 78.418 12.2637C78.418 11.9577 78.138 11.6322 77.5781 11.2871C77.3242 11.1309 77.0345 10.9681 76.709 10.7988C76.39 10.6296 76.0645 10.4408 75.7324 10.2324C74.9186 9.73112 74.2643 9.14518 73.7695 8.47461C73.2812 7.80404 73.0371 6.95768 73.0371 5.93555C73.0371 3.70247 74.2155 2.20182 76.5723 1.43359C77.5293 1.12109 78.6328 0.964844 79.8828 0.964844C81.1393 0.964844 82.4512 1.10807 83.8184 1.39453C84.0983 1.45312 84.2839 1.49544 84.375 1.52148V6.00391C82.6042 5.6263 81.3314 5.4375 80.5566 5.4375C80.2572 5.4375 80.0326 5.48958 79.8828 5.59375C79.7331 5.69792 79.6582 5.8151 79.6582 5.94531C79.6582 6.07552 79.7233 6.21224 79.8535 6.35547C79.9837 6.49219 80.2083 6.63216 80.5273 6.77539C80.8464 6.91211 81.2174 7.08138 81.6406 7.2832C82.0703 7.47852 82.4707 7.6901 82.8418 7.91797C84.5085 8.9401 85.3418 10.3366 85.3418 12.1074C85.3418 13.7871 84.7754 15.0859 83.6426 16.0039C82.4967 16.9154 80.9147 17.3743 78.8965 17.3809ZM92.3773 1.4043H107.143V6.46289H102.797V17H96.7231V6.46289H92.3773V1.4043ZM118.498 1.4043H124.582V17H118.498V11.2383L115.255 11.5215V17H109.181V1.4043H115.255V7.03906L118.498 6.77539V1.4043ZM126.415 17L134.169 2.19531C134.436 1.66797 134.927 1.31641 135.643 1.14062C135.852 1.08854 136.109 1.0625 136.415 1.0625C136.721 1.0625 137.053 1.15039 137.411 1.32617C137.776 1.49544 138.062 1.76562 138.27 2.13672L146.591 17H138.671L138.055 15.457H133.837L133.309 17H126.415ZM134.315 12.3613H137.47L135.975 8.14258L134.315 12.3613ZM145.367 1.4043H160.133V6.46289H155.787V17H149.713V6.46289H145.367V1.4043ZM167.471 1.44336C170.7 1.12435 173.142 0.964844 174.795 0.964844C176.449 0.964844 177.758 1.08529 178.721 1.32617C179.691 1.56706 180.489 1.94141 181.114 2.44922C182.325 3.4388 182.93 5.06315 182.93 7.32227C182.93 8.33789 182.738 9.26888 182.354 10.1152C181.97 10.9616 181.446 11.6875 180.782 12.293C180.118 12.8984 179.34 13.3704 178.448 13.709C177.556 14.0475 176.602 14.2168 175.586 14.2168L173.848 14.1777V17H167.471V1.44336ZM176.27 5.01758C175.71 5.01758 174.89 5.40495 173.809 6.17969V9.86133L174.952 9.30469C175.707 8.93359 176.234 8.57878 176.534 8.24023C177.093 7.60872 177.373 6.98047 177.373 6.35547C177.373 5.73047 177.162 5.31706 176.739 5.11523C176.602 5.05013 176.446 5.01758 176.27 5.01758ZM195.759 7.33203C195.759 6.23177 195.232 5.68164 194.177 5.68164C193.722 5.68164 193.214 5.9681 192.654 6.54102C191.814 7.4069 191.228 8.4388 190.896 9.63672C190.792 10.0143 190.74 10.3626 190.74 10.6816C190.74 11.7624 191.287 12.3027 192.38 12.3027C192.817 12.3092 193.315 12.0195 193.875 11.4336C194.688 10.5742 195.265 9.53255 195.603 8.30859C195.707 7.93099 195.759 7.60547 195.759 7.33203ZM193.093 17.3809C190.782 17.3809 188.777 16.6322 187.078 15.1348C186.537 14.6595 186.069 14.1159 185.671 13.5039C184.825 12.2083 184.402 10.7598 184.402 9.1582C184.402 7.55013 184.793 6.1276 185.574 4.89062C186.355 3.65365 187.403 2.6901 188.718 2C190.033 1.3099 191.394 0.964844 192.8 0.964844C194.213 0.964844 195.457 1.15365 196.531 1.53125C197.605 1.90885 198.539 2.45247 199.334 3.16211C200.134 3.86523 200.763 4.72786 201.218 5.75C201.674 6.77214 201.902 7.92773 201.902 9.2168C201.902 10.8184 201.495 12.2441 200.681 13.4941C199.867 14.7376 198.783 15.6979 197.429 16.375C196.075 17.0456 194.63 17.3809 193.093 17.3809ZM210.327 1.4043V6.19922L214.087 1.4043H220.425L215.386 7.97656L221.206 17H214.087L210.825 11.4824L210.464 12.1172V17H204.145V1.4043H210.327ZM223.547 1.4043H234.787V5.89648H229.621V7.17578H234.768V11.0039H229.621V12.4785H235.129V17H223.547V1.4043ZM237.753 1.4043H239.989L247.529 8.48438L255.273 1.4043H257.431V17H251.015V11.9414L247.03 16.3164L243.154 12.0586V17H237.753V1.4043ZM271.022 7.33203C271.022 6.23177 270.495 5.68164 269.44 5.68164C268.984 5.68164 268.476 5.9681 267.916 6.54102C267.077 7.4069 266.491 8.4388 266.159 9.63672C266.054 10.0143 266.002 10.3626 266.002 10.6816C266.002 11.7624 266.549 12.3027 267.643 12.3027C268.079 12.3092 268.577 12.0195 269.137 11.4336C269.951 10.5742 270.527 9.53255 270.866 8.30859C270.97 7.93099 271.022 7.60547 271.022 7.33203ZM268.356 17.3809C266.045 17.3809 264.039 16.6322 262.34 15.1348C261.8 14.6595 261.331 14.1159 260.934 13.5039C260.088 12.2083 259.664 10.7598 259.664 9.1582C259.664 7.55013 260.055 6.1276 260.836 4.89062C261.618 3.65365 262.666 2.6901 263.981 2C265.296 1.3099 266.657 0.964844 268.063 0.964844C269.476 0.964844 270.719 1.15365 271.793 1.53125C272.868 1.90885 273.802 2.45247 274.596 3.16211C275.397 3.86523 276.025 4.72786 276.481 5.75C276.937 6.77214 277.164 7.92773 277.164 9.2168C277.164 10.8184 276.758 12.2441 275.944 13.4941C275.13 14.7376 274.046 15.6979 272.692 16.375C271.338 17.0456 269.892 17.3809 268.356 17.3809ZM279.408 1.4043H280.99L289.505 7.47852V1.4043H295.004V17H292.904L284.886 11.6387V17H279.408V1.4043ZM297.315 1.52148C298.533 1.17643 299.805 1.00391 301.134 1.00391C304.434 1.00391 306.456 1.91536 307.198 3.73828C307.367 4.15495 307.452 4.6237 307.452 5.14453C307.452 6.49219 307.081 7.50781 306.339 8.19141C306.059 8.45182 305.688 8.73828 305.225 9.05078C304.77 9.36328 304.431 9.6237 304.21 9.83203C303.689 10.3203 303.324 10.9095 303.116 11.5996H299.552C299.356 11.0137 299.259 10.4798 299.259 9.99805C299.259 9.50977 299.324 9.11263 299.454 8.80664C299.591 8.50065 299.76 8.24023 299.962 8.02539C300.17 7.80404 300.391 7.61849 300.626 7.46875C300.86 7.3125 301.078 7.16927 301.28 7.03906C301.488 6.90234 301.658 6.76888 301.788 6.63867C301.925 6.50195 301.993 6.34245 301.993 6.16016C301.993 5.39844 301.472 5.01758 300.43 5.01758C299.695 5.01758 298.822 5.1901 297.813 5.53516C297.585 5.61328 297.419 5.67513 297.315 5.7207V1.52148ZM301.612 12.3223C302.068 12.3223 302.455 12.3874 302.774 12.5176C303.093 12.6413 303.357 12.8138 303.565 13.0352C303.982 13.4648 304.19 14.0215 304.19 14.7051C304.19 15.3887 303.92 16.0007 303.38 16.541C302.839 17.0814 302.117 17.3516 301.212 17.3516C300.307 17.3581 299.643 17.14 299.22 16.6973C298.796 16.248 298.582 15.6882 298.575 15.0176C298.575 14.347 298.865 13.7318 299.444 13.1719C300.024 12.6055 300.746 12.3223 301.612 12.3223Z" fill="#1B2D42"/>
</svg>
